<svg xmlns="http://www.w3.org/2000/svg" viewBox="0 0 512 512" fill="none">
  <defs>
    <linearGradient id="g" x1="0" y1="0" x2="512" y2="512" gradientUnits="userSpaceOnUse">
      <stop offset="0%" stop-color="#8b5cf6"/>
      <stop offset="50%" stop-color="#6366f1"/>
      <stop offset="100%" stop-color="#3b82f6"/>
    </linearGradient>
  </defs>
  <rect width="512" height="512" rx="96" fill="#0a0a0f"/>
  <path d="M256 120 C256 120 256 120 256 120 L256 320 C246 316 236 314 226 316 C206 320 192 338 192 358 C192 378 206 396 226 398 C246 400 264 386 268 366 L268 200 L352 180 L352 300 C342 296 332 294 322 296 C302 300 288 318 288 338 C288 358 302 376 322 378 C342 380 360 366 364 346 L364 120 Z" fill="url(#g)"/>
</svg>
